<svg width="425" height="215" viewBox="0 0 425 215" fill="none" xmlns="http://www.w3.org/2000/svg">
<path d="M0 10C0 4.47716 4.47715 0 10 0H415C420.523 0 425 4.47715 425 10V215H0V10Z" fill="#212529"/>
<path d="M169.277 115.434C168.698 122.332 161.531 123.422 161.531 123.422C167.685 123.712 169.219 131.809 169.219 131.809C169.35 126.036 177.141 123.336 177.141 123.336C171.304 122.986 169.277 115.434 169.277 115.434Z" fill="#D6DF58"/>
<path d="M177.195 122.443C172.078 122.136 170.158 115.27 170.139 115.2C170.025 114.781 169.626 114.503 169.197 114.543C168.766 114.582 168.425 114.926 168.389 115.358C167.877 121.452 161.66 122.496 161.398 122.536C160.944 122.605 160.617 123.008 160.641 123.467C160.665 123.927 161.032 124.294 161.49 124.315C166.859 124.569 168.329 131.902 168.343 131.977C168.424 132.401 168.794 132.703 169.218 132.703C169.243 132.703 169.268 132.702 169.293 132.7C169.748 132.662 170.101 132.287 170.111 131.829C170.227 126.753 177.363 124.207 177.435 124.181C177.836 124.042 178.084 123.636 178.026 123.214C177.967 122.791 177.619 122.468 177.195 122.443ZM169.127 128.615C168.32 126.747 166.922 124.495 164.614 123.319C166.358 122.482 168.426 120.985 169.493 118.385C170.415 120.217 171.99 122.489 174.449 123.588C172.66 124.566 170.332 126.216 169.127 128.615Z" fill="#3A312A"/>
<path d="M156.372 125.564C155.963 130.444 150.894 131.214 150.894 131.214C155.246 131.419 156.331 137.146 156.331 137.146C156.424 133.063 161.935 131.154 161.935 131.154C157.806 130.906 156.372 125.564 156.372 125.564Z" fill="#D6DF58"/>
<path d="M161.988 130.26C158.558 130.054 157.246 125.377 157.234 125.33C157.12 124.911 156.725 124.633 156.293 124.672C155.862 124.711 155.52 125.056 155.484 125.488C155.14 129.587 150.936 130.3 150.76 130.328C150.306 130.397 149.979 130.8 150.003 131.26C150.027 131.719 150.394 132.086 150.852 132.107C154.442 132.277 155.446 137.265 155.455 137.314C155.536 137.739 155.907 138.041 156.331 138.041C156.356 138.041 156.38 138.04 156.405 138.038C156.86 138.001 157.213 137.625 157.224 137.167C157.301 133.761 162.179 132.016 162.227 131.999C162.629 131.86 162.877 131.455 162.819 131.032C162.76 130.609 162.412 130.285 161.988 130.26ZM156.287 134.314C155.738 133.189 154.896 131.959 153.643 131.164C154.746 130.543 155.841 129.596 156.54 128.231C157.168 129.349 158.118 130.59 159.478 131.348C158.377 132.004 157.106 132.982 156.287 134.314Z" fill="#3A312A"/>
<path d="M156.349 109.661C155.958 114.542 150.892 115.332 150.892 115.332C155.245 115.521 156.352 121.243 156.352 121.243C156.429 117.16 161.933 115.228 161.933 115.228C157.803 114.997 156.349 109.661 156.349 109.661Z" fill="#D6DF58"/>
<path d="M161.983 114.335C158.565 114.144 157.232 109.504 157.209 109.424C157.095 109.006 156.698 108.726 156.266 108.771C155.835 108.811 155.495 109.156 155.46 109.59C155.132 113.69 150.931 114.42 150.755 114.449C150.302 114.52 149.976 114.924 150.001 115.382C150.027 115.842 150.396 116.207 150.854 116.227C154.444 116.382 155.467 121.365 155.477 121.414C155.559 121.838 155.929 122.139 156.352 122.139C156.377 122.139 156.403 122.137 156.43 122.135C156.885 122.096 157.236 121.719 157.244 121.26C157.309 117.855 162.179 116.091 162.227 116.074C162.629 115.933 162.876 115.527 162.816 115.104C162.757 114.681 162.408 114.359 161.983 114.335ZM156.298 118.412C155.744 117.288 154.897 116.062 153.641 115.272C154.742 114.646 155.834 113.694 156.526 112.327C157.159 113.443 158.113 114.68 159.477 115.432C158.38 116.093 157.111 117.077 156.298 118.412Z" fill="#3A312A"/>
<path d="M231.261 138.306H219.416V130.585C216.14 132.863 212.75 134.207 209.46 134.207C206.305 134.207 202.975 132.85 199.713 130.544H199.512V138.305H187.661C177.759 138.305 169.733 146.356 169.733 156.287V172.583H249.188V156.287C249.188 146.356 241.162 138.306 231.261 138.306Z" fill="#F7E3C7"/>
<path d="M231.261 137.411H220.309V130.585C220.309 130.252 220.125 129.947 219.831 129.792C219.537 129.638 219.182 129.66 218.909 129.85C215.604 132.148 212.426 133.313 209.462 133.313C206.621 133.313 203.514 132.135 200.228 129.813C200.077 129.707 199.898 129.65 199.714 129.65H199.513C199.02 129.65 198.621 130.051 198.621 130.545V137.412H187.661C177.284 137.412 168.842 145.88 168.842 156.29V172.585C168.842 173.079 169.241 173.48 169.734 173.48H181.567C182.06 173.48 182.459 173.079 182.459 172.585C182.459 172.091 182.06 171.69 181.567 171.69H170.626V156.29C170.626 146.868 178.268 139.202 187.661 139.202H199.512C200.005 139.202 200.405 138.801 200.405 138.307V132.084C203.565 134.088 206.606 135.103 209.461 135.103C212.363 135.103 215.405 134.14 218.524 132.236V138.307C218.524 138.801 218.924 139.202 219.417 139.202H231.261C240.654 139.202 248.296 146.868 248.296 156.29V171.69H189.775C189.282 171.69 188.883 172.091 188.883 172.585C188.883 173.079 189.282 173.48 189.775 173.48H249.189C249.682 173.48 250.081 173.079 250.081 172.585V156.29C250.081 145.88 241.638 137.411 231.261 137.411Z" fill="#3A312A"/>
<path d="M231.259 138.303H228.071L228.137 138.351L209.461 149.937L190.786 138.351L190.851 138.303H187.663C177.761 138.303 169.731 146.357 169.731 156.29V172.583H249.191V156.29C249.191 146.357 241.162 138.303 231.259 138.303Z" fill="#FFC107"/>
<path d="M231.259 137.408H228.071C227.772 137.408 227.5 137.557 227.336 137.795L209.461 148.884L191.585 137.795C191.422 137.557 191.15 137.408 190.851 137.408H187.663C177.283 137.408 168.839 145.878 168.839 156.289V172.582C168.839 173.076 169.238 173.477 169.731 173.477H181.567C182.06 173.477 182.459 173.076 182.459 172.582C182.459 172.088 182.06 171.687 181.567 171.687H170.623V156.289C170.623 146.865 178.267 139.198 187.663 139.198H190.455L208.992 150.697C209.279 150.875 209.643 150.875 209.93 150.697L228.467 139.198H231.259C240.655 139.198 248.299 146.865 248.299 156.289V171.687H189.774C189.281 171.687 188.882 172.088 188.882 172.582C188.882 173.076 189.281 173.477 189.774 173.477H249.191C249.684 173.477 250.083 173.076 250.083 172.582V156.289C250.083 145.879 241.638 137.408 231.259 137.408Z" fill="#3A312A"/>
<path fill-rule="evenodd" clip-rule="evenodd" d="M178.675 86.6533C174.779 86.6533 171.62 89.8211 171.62 93.7293C171.62 97.6374 174.778 100.805 178.675 100.805C182.57 100.805 185.728 97.6368 185.728 93.7293C185.728 89.8217 182.571 86.6533 178.675 86.6533Z" fill="#F7E3C7"/>
<path d="M178.677 85.7585C174.296 85.7585 170.731 89.3344 170.731 93.7294C170.731 98.1243 174.296 101.7 178.677 101.7C183.058 101.7 186.623 98.1237 186.623 93.7294C186.623 89.3344 183.059 85.7585 178.677 85.7585ZM178.677 99.9099C175.28 99.9099 172.516 97.1376 172.516 93.7294C172.516 90.3211 175.28 87.5483 178.677 87.5483C182.075 87.5483 184.839 90.3211 184.839 93.7294C184.839 97.1376 182.075 99.9099 178.677 99.9099Z" fill="#3A312A"/>
<path fill-rule="evenodd" clip-rule="evenodd" d="M240.248 86.6533C236.353 86.6533 233.194 89.8211 233.194 93.7293C233.194 97.6374 236.353 100.805 240.248 100.805C244.144 100.805 247.302 97.6368 247.302 93.7293C247.302 89.8217 244.144 86.6533 240.248 86.6533Z" fill="#F7E3C7"/>
<path d="M240.246 85.7585C235.864 85.7585 232.3 89.3344 232.3 93.7294C232.3 98.1243 235.865 101.7 240.246 101.7C244.627 101.7 248.192 98.1237 248.192 93.7294C248.192 89.3344 244.627 85.7585 240.246 85.7585ZM240.246 99.9099C236.848 99.9099 234.084 97.1376 234.084 93.7294C234.084 90.3211 236.848 87.5483 240.246 87.5483C243.644 87.5483 246.408 90.3211 246.408 93.7294C246.408 97.1376 243.644 99.9099 240.246 99.9099Z" fill="#3A312A"/>
<path d="M242.187 73.6464C242.187 65.3063 238.755 57.7358 233.17 52.1519C233.509 53.1243 233.687 54.1086 233.687 55.081C233.687 58.3741 231.427 61.3808 227.704 63.6598C228.477 64.9484 229.441 66.1296 230.571 67.1676C236.233 72.3578 239.974 79.6121 240.628 87.7374C240.712 87.6241 240.896 87.5644 241.039 87.5108C242.377 87.0216 242.187 74.7202 242.187 73.6464Z" fill="#87796F"/>
<path d="M243.083 74.027L243.081 73.6469C243.081 65.3599 239.786 57.5013 233.802 51.5188C233.507 51.2247 233.049 51.1734 232.697 51.3954C232.345 51.6179 232.193 52.054 232.33 52.4483C232.64 53.3378 232.798 54.2237 232.798 55.0822C232.798 57.9284 230.825 60.7043 227.242 62.8973C226.823 63.1538 226.689 63.7009 226.942 64.1227C227.762 65.4888 228.781 66.7356 229.971 67.8298C235.654 73.0378 239.123 80.1341 239.741 87.8108C239.771 88.183 240.029 88.4974 240.387 88.5995C240.468 88.6227 240.549 88.6335 240.631 88.6335C240.856 88.6335 241.075 88.5476 241.241 88.3913C241.263 88.3823 241.287 88.3751 241.309 88.3668C241.31 88.3668 241.335 88.3567 241.348 88.3525C242.122 88.0685 243.182 87.6754 243.083 74.027ZM241.028 84.0756C239.718 77.3397 236.295 71.2004 231.176 66.5083C230.329 65.7304 229.579 64.866 228.94 63.9306C232.586 61.4697 234.582 58.3526 234.582 55.0816V55.0339C238.932 60.3308 241.297 66.8371 241.297 73.6469L241.299 74.0401C241.335 79.1479 241.199 82.2245 241.028 84.0756Z" fill="#3A312A"/>
<path d="M230.573 67.1612C229.443 66.1291 228.479 64.9479 227.706 63.6653C223.353 66.3379 216.989 68.0262 209.899 68.0262C208.216 68.0262 206.574 67.9308 204.986 67.7458C193.591 66.4453 182.665 73.2641 179.055 84.1874C178.704 85.2374 178.46 86.2456 178.347 87.1822C178.329 87.3134 178.317 87.4447 178.305 87.5759C178.234 88.4708 178.192 89.3776 178.192 90.2963C178.192 107.615 195.488 134.21 209.465 134.21C224.102 134.21 240.731 107.615 240.731 90.2963C240.731 81.1329 236.818 72.8943 230.573 67.1612Z" fill="#F7E3C7"/>
<path d="M231.173 66.4999C230.116 65.5334 229.206 64.4244 228.469 63.2026C228.346 62.9986 228.148 62.8524 227.917 62.7958C227.687 62.7397 227.442 62.7779 227.24 62.9019C222.862 65.5895 216.541 67.1311 209.899 67.1311C208.271 67.1311 206.653 67.0386 205.087 66.8566C193.227 65.4994 181.92 72.6732 178.209 83.9031C177.83 85.0372 177.578 86.1045 177.463 87.062C177.443 87.2063 177.43 87.3501 177.416 87.5046C177.338 88.4806 177.3 89.394 177.3 90.2966C177.3 98.7101 181.344 109.806 187.853 119.257C194.689 129.181 202.767 135.105 209.464 135.105C216.512 135.105 224.48 129.326 231.323 119.252C237.676 109.899 241.622 98.8049 241.622 90.2966C241.623 81.2704 237.815 72.5975 231.173 66.4999ZM229.85 118.244C223.44 127.681 215.819 133.315 209.465 133.315C203.354 133.315 195.824 127.68 189.322 118.239C183.008 109.073 179.085 98.3658 179.085 90.2972C179.085 89.4429 179.122 88.5767 179.195 87.6579C179.205 87.5398 179.216 87.4217 179.233 87.2905C179.336 86.4403 179.56 85.4924 179.902 84.4699C183.071 74.8835 192.199 68.4835 202.213 68.4835C203.098 68.4835 203.989 68.5336 204.884 68.6356C206.516 68.8253 208.204 68.922 209.9 68.922C216.494 68.922 222.817 67.4532 227.419 64.8718C228.15 65.9504 229.006 66.9401 229.972 67.8219C236.243 73.5794 239.841 81.7716 239.841 90.2972C239.839 98.4649 236.012 109.173 229.85 118.244Z" fill="#3A312A"/>
<path d="M198.42 86.8792C196.735 86.8792 195.368 88.2501 195.368 89.9408C195.368 91.6315 196.735 93.0024 198.42 93.0024C200.106 93.0024 201.473 91.6315 201.473 89.9408C201.473 88.2501 200.107 86.8792 198.42 86.8792Z" fill="#3A312A"/>
<path d="M220.503 86.8789C218.817 86.8789 217.45 88.2498 217.45 89.9405C217.45 91.6312 218.816 93.0021 220.503 93.0021C222.189 93.0021 223.555 91.6312 223.555 89.9405C223.555 88.2498 222.189 86.8789 220.503 86.8789Z" fill="#3A312A"/>
<path d="M192.32 95.0999C189.417 95.0999 187.062 96.8651 187.062 99.0426C187.062 101.22 189.417 102.985 192.32 102.985C195.224 102.985 197.578 101.22 197.578 99.0426C197.578 96.8651 195.224 95.0999 192.32 95.0999Z" fill="#F59689"/>
<path d="M226.603 102.985C229.507 102.985 231.861 101.22 231.861 99.0426C231.861 96.8651 229.507 95.0999 226.603 95.0999C223.7 95.0999 221.346 96.8651 221.346 99.0426C221.346 101.22 223.7 102.985 226.603 102.985Z" fill="#F59689"/>
<path d="M218.415 109.505C217.955 109.331 217.439 109.566 217.267 110.029C216.645 111.694 214.213 114.842 209.461 114.842C205.749 114.842 203.185 113.245 201.626 109.958C201.414 109.511 200.882 109.323 200.437 109.534C199.992 109.746 199.803 110.28 200.014 110.727C201.874 114.645 205.052 116.631 209.461 116.631C214.439 116.631 217.862 113.534 218.937 110.656C219.11 110.194 218.877 109.678 218.415 109.505Z" fill="#3A312A"/>
<path d="M212.421 39.5546C201.845 38.8919 192.487 43.7975 187.912 48.2318C181.005 53.9225 177.454 64.2277 177.454 73.6446C177.454 75.3657 177.757 85.1561 178.305 87.5782C178.394 86.5324 178.659 85.3894 179.056 84.1867C182.664 73.2664 193.592 66.4446 204.988 67.7475C206.572 67.9289 208.215 68.0237 209.899 68.0237C223.037 68.0237 233.688 62.2298 233.688 55.0823C233.688 47.9347 223.955 40.2783 212.421 39.5546Z" fill="#87796F"/>
<path d="M212.476 38.6614C202.127 38.0141 192.392 42.6608 187.316 47.5629C180.681 53.0495 176.561 63.0392 176.561 73.6451C176.561 75.3799 176.854 85.2132 177.433 87.7767C177.526 88.1871 177.889 88.4735 178.303 88.4735C178.323 88.4735 178.344 88.4729 178.364 88.4717C178.803 88.4413 179.154 88.0946 179.192 87.6556C179.271 86.7261 179.511 85.6547 179.902 84.4687C183.349 74.0346 193.853 67.3745 204.885 68.6368C206.523 68.8241 208.209 68.919 209.897 68.919C223.737 68.919 234.578 62.8411 234.578 55.0827C234.578 47.2139 224.043 39.3868 212.476 38.6614ZM209.897 67.1293C208.276 67.1293 206.658 67.038 205.088 66.8584C193.698 65.5531 182.823 72.113 178.688 82.5799C178.47 79.0786 178.345 74.9044 178.345 73.6444C178.345 63.6984 182.322 53.9945 188.477 48.923C188.496 48.9075 188.513 48.892 188.531 48.8747C193.015 44.5293 201.394 40.3897 210.51 40.3897C211.124 40.3897 211.744 40.4082 212.365 40.4475C224.057 41.1807 232.794 48.7787 232.794 55.0821C232.794 61.7255 222.522 67.1293 209.897 67.1293Z" fill="#3A312A"/>
<path d="M209.46 161.286C211.02 161.286 212.285 160.018 212.285 158.453C212.285 156.888 211.02 155.619 209.46 155.619C207.9 155.619 206.635 156.888 206.635 158.453C206.635 160.018 207.9 161.286 209.46 161.286Z" fill="#3A312A"/>
<path d="M209.46 169.885C211.02 169.885 212.285 168.617 212.285 167.052C212.285 165.487 211.02 164.218 209.46 164.218C207.9 164.218 206.635 165.487 206.635 167.052C206.635 168.617 207.9 169.885 209.46 169.885Z" fill="#3A312A"/>
<path d="M227.882 39.5159H191.635C183.907 39.5159 177.642 45.8002 177.642 53.552V69.9477H241.876V53.552C241.876 45.8002 235.61 39.5159 227.882 39.5159Z" fill="#FFC107"/>
<path d="M227.88 38.6206H191.634C183.425 38.6206 176.748 45.3189 176.748 53.5516V69.9473C176.748 70.4418 177.147 70.8421 177.64 70.8421H215.08C215.573 70.8421 215.972 70.4418 215.972 69.9473C215.972 69.4527 215.573 69.0524 215.08 69.0524H178.532V53.5516C178.532 46.3057 184.409 40.4103 191.633 40.4103H227.88C235.104 40.4103 240.982 46.3057 240.982 53.5516V69.0524H223.269C222.776 69.0524 222.377 69.4527 222.377 69.9473C222.377 70.4418 222.776 70.8421 223.269 70.8421H241.874C242.367 70.8421 242.766 70.4418 242.766 69.9473V53.5516C242.766 45.3189 236.088 38.6206 227.88 38.6206Z" fill="#3A312A"/>
<path d="M209.46 149.042C208.967 149.042 208.568 149.442 208.568 149.936V152.012L198.551 154.367C198.148 154.461 197.862 154.823 197.862 155.238V172.583C197.862 173.077 198.261 173.478 198.754 173.478C199.248 173.478 199.647 173.077 199.647 172.583V155.947L209.664 153.593C210.067 153.499 210.352 153.137 210.352 152.722V149.936C210.352 149.442 209.953 149.042 209.46 149.042Z" fill="#3A312A"/>
<path d="M253.776 172.478C267.155 171.149 276.927 159.194 275.602 145.774C274.278 132.354 262.359 122.552 248.98 123.88C235.601 125.209 225.828 137.165 227.153 150.584C228.477 164.004 240.397 173.806 253.776 172.478Z" fill="#D7E057"/>
<path d="M251.386 122.866C237.471 122.866 226.149 134.222 226.149 148.18C226.149 162.138 237.471 173.493 251.386 173.493C265.301 173.493 276.622 162.138 276.622 148.18C276.622 134.222 265.301 122.866 251.386 122.866ZM251.386 171.703C238.454 171.703 227.934 161.151 227.934 148.18C227.934 135.208 238.454 124.656 251.386 124.656C264.317 124.656 274.838 135.208 274.838 148.18C274.838 161.151 264.317 171.703 251.386 171.703Z" fill="#3A312A"/>
<path d="M267.077 137.49C265.977 136.266 264.096 136.169 262.877 137.273L246.15 152.408L240.326 144.159C239.376 142.815 237.52 142.497 236.18 143.449C234.84 144.401 234.523 146.263 235.472 147.607L243.231 158.595C243.722 159.291 244.486 159.742 245.33 159.836C245.44 159.848 245.549 159.854 245.658 159.854C246.39 159.854 247.101 159.583 247.65 159.086L266.862 141.701C268.081 140.599 268.178 138.713 267.077 137.49Z" fill="#87796F"/>
<path d="M267.742 136.89C267.051 136.121 266.102 135.668 265.07 135.615C264.042 135.564 263.048 135.914 262.281 136.609L246.299 151.07L241.055 143.642C240.458 142.796 239.569 142.235 238.551 142.061C237.535 141.885 236.508 142.121 235.666 142.719C234.823 143.318 234.263 144.21 234.09 145.231C233.915 146.252 234.148 147.28 234.746 148.125L242.504 159.113C243.141 160.017 244.136 160.605 245.237 160.727C245.378 160.742 245.519 160.75 245.658 160.75C246.616 160.75 247.536 160.395 248.248 159.752L267.46 142.367C268.227 141.674 268.678 140.722 268.731 139.687C268.785 138.653 268.434 137.659 267.742 136.89ZM266.266 141.038L247.055 158.422C246.613 158.821 245.997 159.008 245.43 158.948C244.84 158.882 244.305 158.565 243.961 158.079L236.203 147.09C235.882 146.635 235.756 146.082 235.849 145.532C235.943 144.982 236.244 144.502 236.699 144.179C237.054 143.927 237.47 143.795 237.897 143.795C238.015 143.795 238.134 143.805 238.252 143.825C238.8 143.919 239.279 144.222 239.601 144.677L245.425 152.926C245.572 153.135 245.802 153.27 246.055 153.299C246.308 153.326 246.561 153.244 246.751 153.074L263.478 137.937C263.891 137.564 264.423 137.376 264.98 137.403C265.535 137.432 266.045 137.676 266.418 138.09C266.791 138.503 266.98 139.038 266.951 139.595C266.922 140.152 266.679 140.664 266.266 141.038Z" fill="#3A312A"/>
<path d="M251.388 124.656C250.698 124.656 250.014 124.685 249.336 124.745C255.343 126.517 260.387 130.55 263.485 135.859C263.985 135.668 264.52 135.585 265.067 135.615C266.102 135.668 267.048 136.122 267.744 136.891C269.171 138.478 269.04 140.936 267.458 142.368L266.34 143.382C266.649 144.933 266.81 146.538 266.81 148.178C266.81 159.275 259.435 168.635 249.336 171.612C250.014 171.671 250.698 171.701 251.388 171.701C264.318 171.701 274.839 161.148 274.839 148.178C274.839 135.209 264.318 124.656 251.388 124.656Z" fill="#B9C239"/>
</svg>
