<svg width="425" height="215" viewBox="0 0 425 215" fill="none" xmlns="http://www.w3.org/2000/svg">
<path d="M0 10C0 4.47716 4.47715 0 10 0H415C420.523 0 425 4.47715 425 10V215H0V10Z" fill="#212529"/>
<path d="M242.706 20.9333C274.676 30.5466 276.223 62.6153 257.083 83.5125C253.372 70.8895 242.706 20.9333 242.706 20.9333Z" fill="#FFC107"/>
<path d="M268.205 63.5991C272.838 46.0887 265.52 27.7935 242.707 20.9338C242.707 20.9338 243.613 25.1803 244.989 31.5047C261.208 37.702 268.414 50.24 268.205 63.5991Z" fill="#FFF3F3"/>
<path d="M143.147 161.687C135.188 161.687 128.737 155.807 128.737 148.553C128.737 141.3 135.188 135.42 143.147 135.42C151.105 135.42 157.557 141.3 157.557 148.553C157.557 155.807 151.105 161.687 143.147 161.687Z" fill="#FFE8A2"/>
<path d="M260.545 69.1823H253C252.411 69.1823 251.836 69.2304 251.268 69.2992C250.989 47.5479 234.877 28.3651 207.025 31.5734C207.025 31.5734 229.128 58.8263 242.317 74.2554C240.828 76.1885 239.946 78.5388 239.946 81.081V97.4129C166.19 81.2068 133.409 153.847 156.847 185.73C159.907 189.893 165.127 192.307 170.625 192.307H198.161V175.516C238.642 175.274 250.887 159.5 256.119 152.036C260.263 146.122 266.895 131.194 266.147 120.61H287.717C293.775 120.61 298.687 116.134 298.687 110.612V103.946C298.687 84.7463 281.61 69.1823 260.545 69.1823Z" fill="#FFC107"/>
<path d="M235.13 64.089C227.069 54.6582 215.677 40.8108 208.038 31.4683C207.701 31.5007 207.364 31.5337 207.024 31.5729C207.024 31.5729 221.882 49.8915 234.503 64.9946C234.699 64.6853 234.905 64.381 235.13 64.089Z" fill="#FFE8A2"/>
<path d="M288.547 80.3513C290.448 84.4831 291.5 89.0193 291.5 93.7798V100.446C291.5 105.968 286.588 110.444 280.531 110.444H262.653C260.688 110.444 259.073 111.849 258.979 113.638C258.444 123.842 252.675 136.529 248.932 141.869C243.701 149.333 231.456 165.107 190.975 165.349V182.14H163.438C159.552 182.14 155.809 180.929 152.865 178.752C153.906 181.159 155.181 183.431 156.699 185.527C159.778 189.782 165.033 192.307 170.625 192.307H198.161V175.515C238.642 175.273 250.887 159.5 256.119 152.035C260.263 146.121 266.895 131.193 266.147 120.61H287.717C293.775 120.61 298.687 116.133 298.687 110.612V103.946C298.687 94.8363 294.838 86.5498 288.547 80.3513Z" fill="#FFE8A2"/>
<path d="M243.118 103.621C245.384 104.02 247.486 102.431 247.486 100.327V88.1544C247.486 87.731 247.51 87.3126 247.558 86.9004C248.114 82.1024 246.433 77.3106 243.221 73.4759C230.367 58.1295 214.565 38.6463 214.565 38.6463C226.154 37.3112 235.708 39.8555 242.938 44.8453C235.49 35.4351 223.25 29.7031 207.024 31.5724C207.024 31.5724 229.127 58.8253 242.317 74.2545C240.827 76.1875 239.945 78.5378 239.945 81.08V97.4119C166.189 81.2058 133.408 153.846 156.846 185.729C158.395 187.836 160.498 189.492 162.909 190.617C142.845 158.406 174.046 91.4466 243.118 103.621Z" fill="#FFF3F3"/>
<path d="M231.945 147.533V178.522C241.734 178.522 250.218 181.306 250.218 192.305C244.127 192.305 211.933 192.305 211.933 192.305V158.003L231.945 147.533Z" fill="#FFC107"/>
<path d="M211.932 184.073V192.305C211.932 192.305 244.126 192.305 250.217 192.305C250.217 188.773 249.338 186.091 247.825 184.073C238.303 184.073 211.932 184.073 211.932 184.073Z" fill="#FFE8A2"/>
<path d="M151.115 141.936C159.169 123.3 193.12 109.342 214.283 135.419C224.955 149.237 214.605 170.863 196.626 178.342C215.587 178.342 218.658 183.489 218.658 192.305C213.151 192.305 169.089 192.305 169.089 192.305C154.697 192.305 152.157 181.045 151.115 178.28C146.978 165.352 146.939 153.129 151.115 141.936Z" fill="#FFC107"/>
<path d="M169.089 184.166C154.697 184.166 152.157 172.905 151.115 170.141C149.503 165.105 148.522 160.177 148.162 155.374C147.59 162.695 148.579 170.354 151.115 178.28C152.157 181.045 154.697 192.305 169.089 192.305C169.089 192.305 213.151 192.305 218.658 192.305C218.658 189.075 218.242 186.339 216.786 184.166C206.751 184.166 169.089 184.166 169.089 184.166Z" fill="#FFE8A2"/>
<path d="M151.115 150.703C159.169 132.067 193.121 118.108 214.283 144.185C216.315 146.815 217.58 149.729 218.18 152.773C219.286 146.66 218.215 140.51 214.283 135.419C193.121 109.342 159.169 123.3 151.115 141.936C148.531 148.864 147.565 156.188 148.182 163.829C148.561 159.318 149.535 154.936 151.115 150.703Z" fill="#FFF3F3"/>
<path d="M143.147 133.182C146.329 133.182 149.408 133.994 152.065 135.505C152.31 135.168 152.562 134.834 152.822 134.503C155.002 129.714 157.763 125.052 161.11 120.673C178.392 98.064 206.103 88.6571 237.491 94.6168V81.081C237.491 78.7312 238.124 76.4531 239.335 74.4048C226.182 58.9482 205.266 33.1686 205.051 32.9029C204.533 32.2642 204.425 31.4229 204.768 30.693C205.111 29.9625 205.853 29.453 206.717 29.3534C219.257 27.9087 230.375 30.7131 238.875 37.4626C241.25 39.3487 243.361 41.5205 245.207 43.9123C242.502 31.6785 240.334 21.5311 240.298 21.3606C240.132 20.5808 240.431 19.7793 241.085 19.2541C241.738 18.7289 242.648 18.5594 243.477 18.8083C255.037 22.2846 263.588 28.8388 268.206 37.7624C272.765 46.5713 273.171 57.4039 269.424 67.8466C287.551 71.5483 301.143 86.323 301.143 103.945V110.611C301.143 117.358 295.121 122.847 287.719 122.847H268.657C268.455 134.021 261.948 147.876 258.189 153.239C255.49 157.09 249.287 165.939 234.402 171.8V176.348C249.427 177.147 252.674 185.36 252.674 192.305C252.674 193.541 251.575 194.543 250.219 194.543H218.661H218.66H198.175C198.171 194.543 198.167 194.544 198.163 194.544H170.626C170.613 194.544 170.6 194.543 170.586 194.543H169.091C154.041 194.543 150.288 183.414 149.056 179.757C148.957 179.463 148.872 179.21 148.796 179.007C148.783 178.974 148.772 178.94 148.761 178.906C147.104 173.732 146.095 168.669 145.719 163.736C144.872 163.854 144.016 163.924 143.15 163.924C133.851 163.924 126.285 157.029 126.285 148.553C126.282 140.077 133.848 133.182 143.147 133.182ZM263.764 39.672C260.282 32.9438 254.174 27.7403 245.965 24.4615C247.744 32.7105 251.979 52.2004 255.437 66.9455H260.545C261.884 66.9455 263.207 67.0087 264.514 67.1245C268.135 57.5544 267.886 47.6363 263.764 39.672ZM231.945 180.759C230.589 180.759 229.49 179.758 229.49 178.522V170.304C229.49 170.283 229.489 170.263 229.49 170.242V147.533C229.49 146.297 230.589 145.296 231.945 145.296C233.3 145.296 234.399 146.297 234.399 147.533V166.884C246.477 161.624 251.521 154.438 254.049 150.831C257.662 145.676 264.428 131.097 263.697 120.754C263.653 120.136 263.892 119.531 264.356 119.08C264.82 118.628 265.468 118.373 266.147 118.373H287.717C292.412 118.373 296.231 114.891 296.231 110.612V103.946C296.231 86.0109 280.223 71.4202 260.545 71.4202H253.001C252.586 71.4202 252.138 71.451 251.592 71.5175C250.896 71.6003 250.193 71.4101 249.661 70.9912C249.131 70.5722 248.822 69.9659 248.814 69.3255C248.665 57.7462 243.868 47.3628 235.65 40.837C229.207 35.7208 220.974 33.2111 211.631 33.4813C217.891 41.1698 233.911 60.7817 244.254 72.8812C244.917 73.6575 244.947 74.737 244.326 75.5419C243.067 77.1763 242.401 79.092 242.401 81.0815V97.4129C242.401 98.0986 242.056 98.7464 241.465 99.1709C240.874 99.5949 240.102 99.7492 239.371 99.5881C208.813 92.8739 181.756 101.492 165.139 123.231C164.696 123.811 164.266 124.397 163.844 124.988C168.97 121.944 174.845 119.852 180.873 119.129C194.534 117.492 207.1 122.804 216.291 134.132C221.021 140.257 222.281 148.152 219.839 156.365C218.701 160.192 216.825 163.853 214.388 167.176V179.081C218.552 181.293 220.591 184.844 221.023 190.068H247.62C246.74 183.651 241.804 180.759 231.945 180.759ZM209.414 172.757C209.435 172.755 209.457 172.754 209.478 172.752V172.699C209.457 172.719 209.435 172.738 209.414 172.757ZM209.478 177.245C209.421 177.25 209.363 177.254 209.306 177.259C209.364 177.272 209.421 177.285 209.478 177.299V177.245ZM211.048 182.518C210.987 182.496 210.928 182.47 210.869 182.445C207.963 181.242 203.497 180.579 196.626 180.579C195.471 180.579 194.473 179.845 194.227 178.817C193.982 177.789 194.556 176.743 195.607 176.306C201.259 173.955 206.225 170.041 209.87 165.282C209.899 165.241 209.931 165.203 209.962 165.164C212.272 162.121 214.045 158.739 215.1 155.194C217.154 148.289 216.15 141.723 212.31 136.749C204.261 126.83 193.326 122.149 181.512 123.564C171.96 124.71 162.859 129.722 157.277 136.501C149.731 153.489 149.971 172.357 158.885 184.483C161.449 187.97 165.82 190.055 170.584 190.067H216.134C215.889 186.771 214.858 184.16 211.048 182.518ZM143.147 159.45C143.96 159.45 144.761 159.367 145.547 159.221C145.569 152.977 146.648 146.961 148.791 141.216C148.804 141.183 148.817 141.149 148.831 141.117C149.079 140.543 149.354 139.976 149.644 139.415C147.72 138.277 145.476 137.657 143.147 137.657C136.555 137.657 131.192 142.545 131.192 148.553C131.192 154.561 136.555 159.45 143.147 159.45Z" fill="#402943"/>
<path d="M278.846 93.5557C277.49 93.5557 276.391 92.554 276.391 91.3184C276.391 90.0827 277.49 89.0811 278.846 89.0811C280.202 89.0811 281.301 90.0827 281.301 91.3184C281.301 92.554 280.202 93.5557 278.846 93.5557Z" fill="#402943"/>
</svg>
