<svg width="425" height="215" viewBox="0 0 425 215" fill="none" xmlns="http://www.w3.org/2000/svg">
<path d="M0 10C0 4.47716 4.47715 0 10 0H415C420.523 0 425 4.47715 425 10V215H0V10Z" fill="#212529"/>
<path d="M214.168 179.167C174.017 179.167 141.352 146.619 141.352 106.612C141.352 66.6058 174.017 34.0579 214.168 34.0579C254.319 34.0579 286.985 66.6058 286.985 106.612C286.985 146.619 254.319 179.167 214.168 179.167ZM214.168 39.8622C177.229 39.8622 147.177 69.8063 147.177 106.612C147.177 143.418 177.229 173.362 214.168 173.362C251.107 173.362 281.159 143.418 281.159 106.612C281.159 69.8063 251.107 39.8622 214.168 39.8622Z" fill="#FFC107"/>
<path d="M214.167 161.753C183.652 161.753 158.826 137.017 158.826 106.612C158.826 76.2071 183.652 51.4707 214.167 51.4707C244.681 51.4707 269.507 76.2071 269.507 106.612C269.507 137.017 244.681 161.753 214.167 161.753ZM214.167 57.2751C186.864 57.2751 164.651 79.4076 164.651 106.612C164.651 133.816 186.864 155.949 214.167 155.949C241.469 155.949 263.682 133.816 263.682 106.612C263.682 79.4076 241.469 57.2751 214.167 57.2751Z" fill="#FFC107"/>
<path d="M214.168 141.438L179.216 106.612L196.692 89.199H231.644L249.12 106.612L214.168 141.438Z" fill="white"/>
<path d="M214.168 145.542L175.097 106.612L195.485 86.2966H232.851L253.239 106.612L214.168 145.542ZM183.335 106.612L214.168 137.334L245 106.612L230.437 92.101H197.899L183.335 106.612Z" fill="#FFC107"/>
<path d="M249.12 103.711H179.216V109.515H249.12V103.711Z" fill="#FFC107"/>
<path d="M214.168 143.086C212.661 143.086 211.328 142.129 210.852 140.704L193.929 90.1171L199.455 88.2817L214.168 132.261L228.881 88.2817L234.407 90.1171L217.483 140.704C217.007 142.129 215.675 143.086 214.168 143.086Z" fill="#FFC107"/>
<path d="M217.081 71.7859H211.256V80.4924H217.081V71.7859Z" fill="#FFC107"/>
<path d="M247.059 81.3437L241.233 87.1479L245.352 91.2518L251.177 85.4476L247.059 81.3437Z" fill="#FFC107"/>
<path d="M181.275 81.3424L177.156 85.4463L182.981 91.2505L187.1 87.1467L181.275 81.3424Z" fill="#FFC107"/>
</svg>
