<svg width="96" height="68" viewBox="0 0 96 68" fill="none" xmlns="http://www.w3.org/2000/svg">
<g clip-path="url(#clip0_22_25)">
<path d="M0 56.3878C0 55.8499 0.575755 55.5778 1.15151 55.5778H4.62491C6.32072 55.5778 8.01652 56.1845 8.01652 58.577C8.01652 59.9406 7.47537 60.8351 6.57556 61.2229C7.61066 61.6107 8.3217 62.233 8.3217 63.9187V64.2721C8.3217 66.9336 6.8304 67.8937 4.91436 67.8937H1.15151C0.440468 67.8937 0 67.5215 0 67.1024V56.3847V56.3878ZM2.62708 60.2127H4.40783C5.0528 60.2127 5.37371 59.6216 5.37371 59.0493C5.37371 58.477 5.0528 57.8702 4.40783 57.8702H2.62708V60.2127ZM4.32288 65.6044C5.16921 65.6044 5.67889 65.1322 5.67889 64.0532V63.7842C5.67889 62.6396 5.16921 62.233 4.32288 62.233H2.62708V65.6044H4.32288Z" fill="#FFC107"/>
<path d="M15.5422 56.3722C15.5422 55.8155 16.1872 55.5809 16.8636 55.5809C17.5401 55.5809 18.185 55.8155 18.185 56.3722V64.0219C18.185 66.921 16.3036 68 13.9125 68C11.5214 68 9.63995 66.921 9.63995 64.0219V56.3722C9.63995 55.8155 10.2849 55.5809 10.9614 55.5809C11.6378 55.5809 12.2828 55.8155 12.2828 56.3722V64.0219C12.2828 65.1665 12.8931 65.7076 13.9093 65.7076C14.9256 65.7076 15.5359 65.1697 15.5359 64.0219V56.3722H15.5422Z" fill="#FFC107"/>
<path d="M19.9658 56.3722C19.9658 55.95 20.2867 55.5809 20.7806 55.5809H24.2886C26.6105 55.5809 28.4574 56.441 28.4574 59.1869C28.4574 61.0727 27.5921 62.1517 26.406 62.6083L28.4731 66.3331C28.5423 66.4332 28.558 66.552 28.558 66.6364C28.558 67.2932 27.6771 68 26.8968 68C26.557 68 26.2361 67.8655 26.0505 67.5121L23.7286 63.0305H22.6086V67.0931C22.6086 67.631 21.9479 67.9031 21.2872 67.9031C20.6265 67.9031 19.9658 67.6341 19.9658 67.0931V56.3753V56.3722ZM22.6086 57.8733V61.007H24.2855C25.2356 61.007 25.8114 60.6192 25.8114 59.4402C25.8114 58.2612 25.2356 57.8733 24.2855 57.8733H22.6086Z" fill="#FFC107"/>
<path d="M33.8972 57.8702C32.9313 57.8702 32.3713 58.4081 32.3713 59.5559V64.0219C32.3713 65.1665 32.9313 65.7076 33.8814 65.7076C34.8316 65.7076 35.4073 65.1697 35.4073 64.0219V63.4496H34.4069C33.8972 63.4496 33.6109 62.9617 33.6109 62.4394C33.6109 61.9515 33.9003 61.4292 34.4069 61.4292H37.2542C37.7639 61.4292 38.0502 61.8171 38.0502 62.2549V64.025C38.0502 66.9242 36.2191 68.0031 33.8814 68.0031C31.5438 68.0031 29.7285 66.9242 29.7285 64.025V59.559C29.7285 56.6599 31.5753 55.5809 33.7965 55.5809C36.2191 55.5809 38.0502 56.7944 38.0502 58.9336C38.0502 59.9437 37.6254 60.1814 36.7288 60.1814C36.0177 60.1814 35.4231 59.9969 35.4073 59.3902C35.3916 58.7834 35.3381 57.8733 33.8972 57.8733V57.8702Z" fill="#FFC107"/>
<path d="M42.2189 60.7193H44.761C45.2707 60.7193 45.557 61.2072 45.557 61.7483C45.557 62.2049 45.321 62.7428 44.761 62.7428H42.2189V65.6075H46.762C47.2717 65.6075 47.558 66.1454 47.558 66.7709C47.558 67.3088 47.322 67.8999 46.762 67.8999H40.7276C40.1518 67.8999 39.576 67.631 39.576 67.0899V56.3909C39.576 55.853 40.1518 55.5809 40.7276 55.5809H46.762C47.322 55.5809 47.558 56.172 47.558 56.7099C47.558 57.3323 47.2685 57.8733 46.762 57.8733H42.2189V60.7225V60.7193Z" fill="#FFC107"/>
<path d="M48.7095 56.3722C48.7095 55.95 49.0304 55.5809 49.5243 55.5809H53.0323C55.3542 55.5809 57.2011 56.441 57.2011 59.1869C57.2011 61.0727 56.3359 62.1517 55.1497 62.6083L57.2168 66.3331C57.2829 66.4332 57.3017 66.552 57.3017 66.6364C57.3017 67.2932 56.4208 68 55.6406 68C55.3008 68 54.9798 67.8655 54.7942 67.5121L52.4723 63.0305H51.3523V67.0931C51.3523 67.631 50.6916 67.9031 50.0309 67.9031C49.3702 67.9031 48.7095 67.6341 48.7095 67.0931V56.3753V56.3722ZM51.3554 57.8733V61.007H53.0323C53.9825 61.007 54.5583 60.6192 54.5583 59.4402C54.5583 58.2612 53.9825 57.8733 53.0323 57.8733H51.3554Z" fill="#FFC107"/>
<path d="M62.644 57.8702C61.6781 57.8702 61.1181 58.4082 61.1181 59.5559V64.0219C61.1181 65.1666 61.6781 65.7076 62.6597 65.7076C64.0157 65.7076 64.1007 64.6787 64.151 64.0219C64.2014 63.3996 64.7771 63.2307 65.4567 63.2307C66.3722 63.2307 66.797 63.4652 66.797 64.4785C66.797 66.7209 64.9659 68 62.5433 68C60.3221 68 58.4753 66.9211 58.4753 64.0219V59.5559C58.4753 56.6568 60.3221 55.5778 62.5433 55.5778C64.969 55.5778 66.797 56.7913 66.797 58.9304C66.797 59.9406 66.3722 60.1783 65.4756 60.1783C64.7645 60.1783 64.1888 59.9938 64.1542 59.387C64.1384 58.9492 64.0881 57.8702 62.644 57.8702Z" fill="#F1F2F2"/>
<path d="M67.9988 64.0219V59.5559C67.9988 56.6568 69.8111 55.5778 72.1518 55.5778C74.4926 55.5778 76.3205 56.6568 76.3205 59.5559V64.0219C76.3205 66.9211 74.4895 68 72.1518 68C69.8142 68 67.9988 66.9211 67.9988 64.0219ZM73.6777 59.5559C73.6777 58.3925 73.102 57.8702 72.1518 57.8702C71.2017 57.8702 70.6448 58.3925 70.6448 59.5559V64.0219C70.6448 65.1853 71.2048 65.7076 72.1518 65.7076C73.0988 65.7076 73.6777 65.1853 73.6777 64.0219V59.5559Z" fill="#F1F2F2"/>
<path d="M82.1693 55.5809C84.5101 55.5809 86.3381 56.6599 86.3381 59.559V63.9218C86.3381 66.821 84.507 67.8999 82.1693 67.8999H79.1679C78.4726 67.8999 78.0164 67.5278 78.0164 67.1087V56.3753C78.0164 55.9531 78.4757 55.5841 79.1679 55.5841H82.1693V55.5809ZM80.6623 57.8733V65.6075H82.1693C83.1195 65.6075 83.6952 65.0696 83.6952 63.9218V59.559C83.6952 58.4144 83.1195 57.8733 82.1693 57.8733H80.6623Z" fill="#F1F2F2"/>
<path d="M90.6609 60.7193H93.203C93.7127 60.7193 93.999 61.2072 93.999 61.7483C93.999 62.2049 93.763 62.7428 93.203 62.7428H90.6609V65.6075H95.204C95.7137 65.6075 96 66.1454 96 66.7709C96 67.3088 95.764 67.8999 95.204 67.8999H89.1696C88.5938 67.8999 88.0181 67.631 88.0181 67.0899V56.3909C88.0181 55.853 88.5938 55.5809 89.1696 55.5809H95.204C95.764 55.5809 96 56.172 96 56.7099C96 57.3323 95.7105 57.8733 95.204 57.8733H90.6609V60.7225V60.7193Z" fill="#F1F2F2"/>
<path d="M39.3621 39.3276H31.0656C26.6389 39.3276 24.4271 37.1259 24.4271 32.7287C24.4271 30.9054 22.9421 29.4293 21.1079 29.4293C19.2736 29.4293 17.7886 30.9054 17.7886 32.7287C17.7886 41.5262 22.2153 45.9265 31.0656 45.9265H47.6618C46.998 41.5262 44.2324 39.3276 39.3653 39.3276H39.3621Z" fill="#F1F2F2"/>
<path d="M21.1078 24.2252C22.9421 24.2252 24.4271 22.749 24.4271 20.9257V20.9195C24.4271 16.5254 26.642 14.3268 31.0656 14.3268H39.3621C44.2293 14.3268 46.9979 12.1282 47.6618 7.72793C48.3256 12.1282 51.0911 14.3268 55.9583 14.3268H64.2548C68.6815 14.3268 70.8933 16.5286 70.8933 20.9257C70.8933 22.749 72.3783 24.2252 74.2126 24.2252C76.0468 24.2252 77.5318 22.749 77.5318 20.9257C77.5318 12.1282 73.1051 7.72793 64.2548 7.72793H55.9583C52.6454 7.72793 50.981 7.10869 50.981 3.29947C50.981 1.47617 49.4929 -0.00311279 47.6586 -0.00311279C45.8244 -0.00311279 44.3362 1.47617 44.3362 3.29947C44.3362 7.07429 42.6751 7.72793 39.359 7.72793H31.0624C22.2122 7.72793 17.7855 12.1282 17.7855 20.9257C17.7855 22.749 19.2705 24.2252 21.1047 24.2252H21.1078Z" fill="#F1F2F2"/>
<path d="M74.2126 29.4293C72.3783 29.4293 70.8933 30.9054 70.8933 32.7287C70.8933 37.129 68.6815 39.3276 64.2548 39.3276H55.9583C51.088 39.3276 48.3256 41.5262 47.6586 45.9265H64.2548C73.1051 45.9265 77.5318 41.5262 77.5318 32.7287C77.5318 30.9054 76.0468 29.4293 74.2126 29.4293Z" fill="#F1F2F2"/>
<path d="M65.0225 20.9289C66.1143 20.9289 67.0015 20.0469 67.0015 18.9617C67.0015 17.8765 66.1174 16.9945 65.0225 16.9945H30.2979C29.2062 16.9945 28.319 17.8733 28.319 18.9617C28.319 20.0501 29.2062 20.9289 30.2979 20.9289H65.0225Z" fill="#FFC107"/>
<path d="M30.2979 32.7256C29.2062 32.7256 28.319 33.6075 28.319 34.6927C28.319 35.778 29.2062 36.6599 30.2979 36.6599H65.0225C66.1143 36.6599 67.0015 35.7811 67.0015 34.6927C67.0015 33.6044 66.1174 32.7256 65.0225 32.7256H30.2979Z" fill="#FFC107"/>
<path d="M70.3553 26.8272C70.3553 25.742 69.4712 24.8601 68.3764 24.8601H26.944C25.8523 24.8601 24.9651 25.742 24.9651 26.8272C24.9651 27.9125 25.8492 28.7944 26.944 28.7944H68.3764C69.4681 28.7944 70.3553 27.9156 70.3553 26.8272Z" fill="#FFC107"/>
</g>
<defs>
<clipPath id="clip0_22_25">
<rect width="96" height="68" fill="white"/>
</clipPath>
</defs>
</svg>
